<svg xmlns="http://www.w3.org/2000/svg">   
  <symbol id="beauty" viewBox="0 0 24 22">
    <path d="M20.84 3.61C20.3292 3.099 19.7228 2.69364 19.0554 2.41708C18.3879 2.14052 17.6725 1.99817 16.95 1.99817C16.2275 1.99817 15.5121 2.14052 14.8446 2.41708C14.1772 2.69364 13.5708 3.099 13.06 3.61L12 4.67L10.94 3.61C9.9083 2.57831 8.50903 1.99871 7.05 1.99871C5.59096 1.99871 4.19169 2.57831 3.16 3.61C2.1283 4.64169 1.54871 6.04097 1.54871 7.5C1.54871 8.95903 2.1283 10.3583 3.16 11.39L4.22 12.45L12 20.23L19.78 12.45L20.84 11.39C21.351 10.8792 21.7563 10.2728 22.0329 9.60535C22.3095 8.93789 22.4518 8.22249 22.4518 7.5C22.4518 6.77751 22.3095 6.0621 22.0329 5.39464C21.7563 4.72718 21.351 4.12075 20.84 3.61V3.61Z" stroke-width="2" stroke-linecap="round" stroke-linejoin="round"/>
  </symbol>
  <symbol id="car" viewBox="0 0 24 20">
    <path d="M16 1H1V14H16V1Z" stroke-width="2" stroke-linecap="round" stroke-linejoin="round" />
    <path d="M16 6H20L23 9V14H16V6Z" stroke-width="2" stroke-linecap="round" stroke-linejoin="round"/>
    <path d="M5.5 19C6.88071 19 8 17.8807 8 16.5C8 15.1193 6.88071 14 5.5 14C4.11929 14 3 15.1193 3 16.5C3 17.8807 4.11929 19 5.5 19Z" stroke-width="2" stroke-linecap="round" stroke-linejoin="round" />
    <path d="M18.5 19C19.8807 19 21 17.8807 21 16.5C21 15.1193 19.8807 14 18.5 14C17.1193 14 16 15.1193 16 16.5C16 17.8807 17.1193 19 18.5 19Z" stroke-width="2" stroke-linecap="round" stroke-linejoin="round"/>
  </symbol>
  <symbol id="catalog" viewBox="0 0 20 20">
    <path d="M8 1H1V8H8V1Z" stroke-width="2" stroke-linecap="round" stroke-linejoin="round"/>
    <path d="M19 1H12V8H19V1Z" stroke-width="2" stroke-linecap="round" stroke-linejoin="round"/>
    <path d="M19 12H12V19H19V12Z" stroke-width="2" stroke-linecap="round" stroke-linejoin="round"/>
    <path d="M8 12H1V19H8V12Z" stroke-width="2" stroke-linecap="round" stroke-linejoin="round"/>
  </symbol>
  <symbol id="enjoy" viewBox="0 0 22 23">
    <path d="M15 22V18.13C15.0375 17.6532 14.9731 17.1738 14.811 16.7238C14.6489 16.2738 14.3929 15.8634 14.06 15.52C17.2 15.17 20.5 13.98 20.5 8.52C20.4997 7.12383 19.9627 5.7812 19 4.77C19.4559 3.54851 19.4236 2.19835 18.91 0.999999C18.91 0.999999 17.73 0.649999 15 2.48C12.708 1.85882 10.292 1.85882 8 2.48C5.27 0.649999 4.09 0.999999 4.09 0.999999C3.57638 2.19835 3.54414 3.54851 4 4.77C3.03013 5.7887 2.49252 7.14346 2.5 8.55C2.5 13.97 5.8 15.16 8.94 15.55C8.611 15.89 8.35726 16.2954 8.19531 16.7399C8.03335 17.1844 7.96681 17.6581 8 18.13V22M8 19C3 20.5 3 16.5 1 16L8 19Z" stroke-width="2" stroke-linecap="round" stroke-linejoin="round"/>
  </symbol>
  <symbol id="health" viewBox="0 0 22 20">
    <path d="M21 10H17L14 19L8 1L5 10H1" stroke-width="2" stroke-linecap="round" stroke-linejoin="round"/>
  </symbol>
  <symbol id="search" viewBox="0 0 24 24">
    <path d="M5 11C5 15.4183 8.58172 19 13 19C17.4183 19 21 15.4183 21 11C21 6.58172 17.4183 3 13 3C8.58172 3 5 6.58172 5 11Z" stroke-width="2" stroke-linecap="round" stroke-linejoin="round"/>
    <path d="M2.99998 21L7.34998 16.65" stroke-width="2" stroke-linecap="round" stroke-linejoin="round"/>
  </symbol>
  <symbol id="menu" viewBox="0 0 26 20">
    <rect width="26" height="2" rx="1" />
    <rect y="18" width="26" height="2" rx="1" />
    <rect y="8.99998" width="26" height="2" rx="1" />
  </symbol>
  <symbol id="close" viewBox="0 0 26 20">
    <rect width="26.1977" height="2.01521" rx="1.00761" transform="matrix(0.705315 0.708894 -0.705315 0.708894 4.52234 0)" />
    <rect width="26.1977" height="2.01521" rx="1.00761" transform="matrix(0.705315 -0.708894 0.705315 0.708894 3 18.5714)" />
  </symbol>
</svg>